<svg width="512" height="512" viewBox="0 0 512 512" fill="none" xmlns="http://www.w3.org/2000/svg">
    <path d="M388 64C421.137 64 448 90.8629 448 124V328C448 394.274 394.274 448 328 448H124C90.8629 448 64 421.137 64 388V184C64 117.726 117.726 64 184 64H388ZM256 136C189.726 136 136 189.726 136 256V316C136 349.137 162.863 376 196 376H256C322.274 376 376 322.274 376 256V196C376 162.863 349.137 136 316 136H256Z" fill="url(#paint0_linear_6_9)"/>
    <defs>
        <linearGradient id="paint0_linear_6_9" x1="64" y1="64" x2="448" y2="448" gradientUnits="userSpaceOnUse">
            <stop stop-color="white"/>
            <stop offset="1" stop-color="#3D0251"/>
        </linearGradient>
    </defs>
</svg>
