<svg width="512" height="512" viewBox="0 0 512 512" fill="none" xmlns="http://www.w3.org/2000/svg">
    <path d="M388 64C421.137 64 448 90.8629 448 124V328C448 394.274 394.274 448 328 448H124C90.8629 448 64 421.137 64 388V184C64 117.726 117.726 64 184 64H388ZM269 149C202.726 149 149 202.726 149 269V303C149 336.137 175.863 363 209 363H243C309.274 363 363 309.274 363 243V209C363 175.863 336.137 149 303 149H269Z" fill="url(#paint0_linear_6_9)"/>
    <path d="M380 72C413.137 72 440 98.8629 440 132V320C440 386.274 386.274 440 320 440H132C98.8629 440 72 413.137 72 380V192C72 125.726 125.726 72 192 72H380ZM261 141C194.726 141 141 194.726 141 261V311C141 344.137 167.863 371 201 371H251C317.274 371 371 317.274 371 251V201C371 167.863 344.137 141 311 141H261Z" fill="url(#paint1_linear_6_9)"/>
    <defs>
        <linearGradient id="paint0_linear_6_9" x1="64" y1="64" x2="448" y2="448" gradientUnits="userSpaceOnUse">
            <stop stop-color="#3D0251"/>
            <stop offset="1" stop-color="white"/>
        </linearGradient>
        <linearGradient id="paint1_linear_6_9" x1="72" y1="72" x2="440" y2="440" gradientUnits="userSpaceOnUse">
            <stop stop-color="white"/>
            <stop offset="1" stop-color="#3D0251"/>
        </linearGradient>
    </defs>
</svg>
