<svg width="24" height="24" viewBox="0 0 24 24" fill="none" xmlns="http://www.w3.org/2000/svg">
    <g filter="url(#filter0_f_15_2)">
        <path d="M5.5 9.5H18.5V20.5C18.5 21.6046 17.6046 22.5 16.5 22.5H7.5C6.39543 22.5 5.5 21.6046 5.5 20.5V9.5Z" fill="white" fill-opacity="0.2"/>
    </g>
    <g filter="url(#filter1_f_15_2)">
        <path d="M2.5 5.5C2.5 4.39543 3.39543 3.5 4.5 3.5H19.5C20.6046 3.5 21.5 4.39543 21.5 5.5V7.5C21.5 8.60457 20.6046 9.5 19.5 9.5H4.5C3.39543 9.5 2.5 8.60457 2.5 7.5V5.5Z" fill="white" fill-opacity="0.2"/>
    </g>
    <g filter="url(#filter2_f_15_2)">
        <path d="M7.5 3.5C7.5 2.39543 8.39543 1.5 9.5 1.5H14.5C15.6046 1.5 16.5 2.39543 16.5 3.5V3.5H7.5V3.5Z" fill="white" fill-opacity="0.2"/>
    </g>
    <path d="M6 9H18V20C18 21.1046 17.1046 22 16 22H8C6.89543 22 6 21.1046 6 20V9Z" fill="white"/>
    <path d="M3 6C3 4.89543 3.89543 4 5 4H19C20.1046 4 21 4.89543 21 6V7C21 8.10457 20.1046 9 19 9H5C3.89543 9 3 8.10457 3 7V6Z" fill="white"/>
    <path d="M8 4C8 2.89543 8.89543 2 10 2H14C15.1046 2 16 2.89543 16 4V4H8V4Z" fill="white"/>
    <defs>
        <filter id="filter0_f_15_2" x="4.5" y="8.5" width="15" height="15" filterUnits="userSpaceOnUse" color-interpolation-filters="sRGB">
            <feFlood flood-opacity="0" result="BackgroundImageFix"/>
            <feBlend mode="normal" in="SourceGraphic" in2="BackgroundImageFix" result="shape"/>
            <feGaussianBlur stdDeviation="0.5" result="effect1_foregroundBlur_15_2"/>
        </filter>
        <filter id="filter1_f_15_2" x="1.5" y="2.5" width="21" height="8" filterUnits="userSpaceOnUse" color-interpolation-filters="sRGB">
            <feFlood flood-opacity="0" result="BackgroundImageFix"/>
            <feBlend mode="normal" in="SourceGraphic" in2="BackgroundImageFix" result="shape"/>
            <feGaussianBlur stdDeviation="0.5" result="effect1_foregroundBlur_15_2"/>
        </filter>
        <filter id="filter2_f_15_2" x="6.5" y="0.5" width="11" height="4" filterUnits="userSpaceOnUse" color-interpolation-filters="sRGB">
            <feFlood flood-opacity="0" result="BackgroundImageFix"/>
            <feBlend mode="normal" in="SourceGraphic" in2="BackgroundImageFix" result="shape"/>
            <feGaussianBlur stdDeviation="0.5" result="effect1_foregroundBlur_15_2"/>
        </filter>
    </defs>
</svg>
