<svg width="24" height="24" viewBox="0 0 24 24" fill="none" xmlns="http://www.w3.org/2000/svg">
    <g clip-path="url(#clip0_11_20)">
        <g filter="url(#filter0_f_11_20)">
            <path d="M18.5 1.5C20.7091 1.5 22.5 3.29086 22.5 5.5V14.5C22.5 18.9183 18.9183 22.5 14.5 22.5H5.5C3.29086 22.5 1.5 20.7091 1.5 18.5V9.5C1.5 5.08172 5.08172 1.5 9.5 1.5H18.5ZM13.3848 7.5C10.1348 7.5 7.5 10.1348 7.5 13.3848C7.50008 15.1052 8.89477 16.4999 10.6152 16.5C13.8652 16.5 16.5 13.8652 16.5 10.6152C16.4999 8.89477 15.1052 7.50008 13.3848 7.5Z" fill="white" fill-opacity="0.2"/>
        </g>
        <path d="M18 2C20.2091 2 22 3.79086 22 6V14C22 18.4183 18.4183 22 14 22H6C3.79086 22 2 20.2091 2 18V10C2 5.58172 5.58172 2 10 2H18ZM13.667 7C9.98509 7 7 9.98509 7 13.667C7.00018 15.5077 8.49232 16.9998 10.333 17C14.0149 17 17 14.0149 17 10.333C16.9998 8.49232 15.5077 7.00018 13.667 7Z" fill="white"/>
    </g>
    <defs>
        <filter id="filter0_f_11_20" x="0.5" y="0.5" width="23" height="23" filterUnits="userSpaceOnUse" color-interpolation-filters="sRGB">
            <feFlood flood-opacity="0" result="BackgroundImageFix"/>
            <feBlend mode="normal" in="SourceGraphic" in2="BackgroundImageFix" result="shape"/>
            <feGaussianBlur stdDeviation="0.5" result="effect1_foregroundBlur_11_20"/>
        </filter>
        <clipPath id="clip0_11_20">
            <rect width="24" height="24" fill="white"/>
        </clipPath>
    </defs>
</svg>
