<svg width="24" height="24" viewBox="0 0 24 24" fill="none" xmlns="http://www.w3.org/2000/svg">
    <g filter="url(#filter0_f_34_2)">
        <path d="M18 2C20.2091 2 22 3.79086 22 6V14C22 18.4183 18.4183 22 14 22H6C3.79086 22 2 20.2091 2 18V10C2 5.58172 5.58172 2 10 2H18ZM13.5381 7C9.92729 7.0002 7.0002 9.92729 7 13.5381C7 15.4498 8.55016 17 10.4619 17C14.0727 16.9998 16.9998 14.0727 17 10.4619C17 8.55016 15.4498 7 13.5381 7Z" fill="url(#paint0_linear_34_2)"/>
    </g>
    <path d="M18 2C20.2091 2 22 3.79086 22 6V14C22 18.4183 18.4183 22 14 22H6C3.79086 22 2 20.2091 2 18V10C2 5.58172 5.58172 2 10 2H18ZM13.5381 7C9.92729 7.0002 7.0002 9.92729 7 13.5381C7 15.4498 8.55016 17 10.4619 17C14.0727 16.9998 16.9998 14.0727 17 10.4619C17 8.55016 15.4498 7 13.5381 7Z" fill="url(#paint1_linear_34_2)"/>
    <path d="M17 3C19.2091 3 21 4.79086 21 7V13C21 17.4183 17.4183 21 13 21H7C4.79086 21 3 19.2091 3 17V11C3 6.58172 6.58172 3 11 3H17ZM14 6C9.58172 6 6 9.58172 6 14C6 16.2091 7.79086 18 10 18C14.4183 18 18 14.4183 18 10C18 7.79086 16.2091 6 14 6Z" fill="url(#paint2_linear_34_2)"/>
    <defs>
        <filter id="filter0_f_34_2" x="1" y="1" width="22" height="22" filterUnits="userSpaceOnUse" color-interpolation-filters="sRGB">
            <feFlood flood-opacity="0" result="BackgroundImageFix"/>
            <feBlend mode="normal" in="SourceGraphic" in2="BackgroundImageFix" result="shape"/>
            <feGaussianBlur stdDeviation="0.5" result="effect1_foregroundBlur_34_2"/>
        </filter>
        <linearGradient id="paint0_linear_34_2" x1="2" y1="2" x2="22" y2="22" gradientUnits="userSpaceOnUse">
            <stop stop-color="#3D0251"/>
            <stop offset="1" stop-color="white"/>
        </linearGradient>
        <linearGradient id="paint1_linear_34_2" x1="2" y1="2" x2="22" y2="22" gradientUnits="userSpaceOnUse">
            <stop stop-color="#3D0251"/>
            <stop offset="1" stop-color="white"/>
        </linearGradient>
        <linearGradient id="paint2_linear_34_2" x1="3" y1="3" x2="21" y2="21" gradientUnits="userSpaceOnUse">
            <stop stop-color="white"/>
            <stop offset="1" stop-color="#3D0251"/>
        </linearGradient>
    </defs>
</svg>
