<svg width="24" height="24" viewBox="0 0 24 24" fill="none" xmlns="http://www.w3.org/2000/svg">
    <path d="M18 2C20.2091 2 22 3.79086 22 6V14C22 18.4183 18.4183 22 14 22H6C3.79086 22 2 20.2091 2 18V10C2 5.58172 5.58172 2 10 2H18ZM13.667 7C9.98509 7 7 9.98509 7 13.667C7.00018 15.5077 8.49232 16.9998 10.333 17C14.0149 17 17 14.0149 17 10.333C16.9998 8.49232 15.5077 7.00018 13.667 7Z" fill="url(#paint0_linear_6_9)"/>
    <path d="M17 3C19.2091 3 21 4.79086 21 7V13C21 17.4183 17.4183 21 13 21H7C4.79086 21 3 19.2091 3 17V11C3 6.58172 6.58172 3 11 3H17ZM14 6C9.58172 6 6 9.58172 6 14C6 16.2091 7.79086 18 10 18C14.4183 18 18 14.4183 18 10C18 7.79086 16.2091 6 14 6Z" fill="url(#paint1_linear_6_9)"/>
    <defs>
        <linearGradient id="paint0_linear_6_9" x1="2" y1="2" x2="22" y2="22" gradientUnits="userSpaceOnUse">
            <stop stop-color="#3D0251"/>
            <stop offset="1" stop-color="white"/>
        </linearGradient>
        <linearGradient id="paint1_linear_6_9" x1="3" y1="3" x2="21" y2="21" gradientUnits="userSpaceOnUse">
            <stop stop-color="white"/>
            <stop offset="1" stop-color="#3D0251"/>
        </linearGradient>
    </defs>
</svg>
