<!--
  - Copyright (C) 2026 Blaadick
  - SPDX-License-Identifier: GPL-3.0-only
  -->

<svg width="24" height="24" viewBox="0 0 24 24" fill="none" xmlns="http://www.w3.org/2000/svg">
    <rect x="1" y="1" width="22" height="22" rx="2" fill="white" fill-opacity="0.2"/>
    <rect x="18" y="8" width="4" height="14" rx="2" fill="white" fill-opacity="0.5"/>
    <rect x="18" y="9" width="4" height="9" rx="2" fill="white"/>
    <path d="M2 22C2 20.8954 2.89543 20 4 20H14C15.1046 20 16 20.8954 16 22H2Z" fill="white"/>
    <rect x="2" y="13" width="14" height="5" rx="2" fill="white"/>
    <path d="M2 8H16V9C16 10.1046 15.1046 11 14 11H4C2.89543 11 2 10.1046 2 9V8Z" fill="white"/>
    <rect x="2" y="2" width="20" height="4" rx="2" fill="white"/>
</svg>
