<!--
  - Copyright (C) 2026 Blaadick
  - SPDX-License-Identifier: GPL-3.0-only
  -->

<svg width="7680" height="2160" viewBox="0 0 172 48" fill="none" xmlns="http://www.w3.org/2000/svg">
    <rect width="172" height="48" fill="black"/>
    <g filter="url(#filter0_f_2_15)">
        <path d="M92 14C94.2091 14 96 15.7909 96 18V26C96 30.4183 92.4183 34 88 34H80C77.7909 34 76 32.2091 76 30V22C76 17.5817 79.5817 14 84 14H92ZM87.667 19C83.9851 19 81 21.9851 81 25.667C81.0002 27.5077 82.4923 28.9998 84.333 29C88.0149 29 91 26.0149 91 22.333C90.9998 20.4923 89.5077 19.0002 87.667 19Z" fill="url(#paint0_linear_2_15)"/>
    </g>
    <g filter="url(#filter1_d_2_15)">
        <path d="M92 14C94.2091 14 96 15.7909 96 18V26C96 30.4183 92.4183 34 88 34H80C77.7909 34 76 32.2091 76 30V22C76 17.5817 79.5817 14 84 14H92ZM87.667 19C83.9851 19 81 21.9851 81 25.667C81.0002 27.5077 82.4923 28.9998 84.333 29C88.0149 29 91 26.0149 91 22.333C90.9998 20.4923 89.5077 19.0002 87.667 19Z" fill="url(#paint1_linear_2_15)"/>
    </g>
    <path d="M91 15C93.2091 15 95 16.7909 95 19V25C95 29.4183 91.4183 33 87 33H81C78.7909 33 77 31.2091 77 29V23C77 18.5817 80.5817 15 85 15H91ZM88 18C83.5817 18 80 21.5817 80 26C80 28.2091 81.7909 30 84 30C88.4183 30 92 26.4183 92 22C92 19.7909 90.2091 18 88 18Z" fill="url(#paint2_linear_2_15)"/>
    <defs>
        <filter id="filter0_f_2_15" x="72" y="10" width="28" height="28" filterUnits="userSpaceOnUse" color-interpolation-filters="sRGB">
            <feFlood flood-opacity="0" result="BackgroundImageFix"/>
            <feBlend mode="normal" in="SourceGraphic" in2="BackgroundImageFix" result="shape"/>
            <feGaussianBlur stdDeviation="2" result="effect1_foregroundBlur_2_15"/>
        </filter>
        <filter id="filter1_d_2_15" x="72" y="14" width="28" height="28" filterUnits="userSpaceOnUse" color-interpolation-filters="sRGB">
            <feFlood flood-opacity="0" result="BackgroundImageFix"/>
            <feColorMatrix in="SourceAlpha" type="matrix" values="0 0 0 0 0 0 0 0 0 0 0 0 0 0 0 0 0 0 127 0" result="hardAlpha"/>
            <feOffset dy="4"/>
            <feGaussianBlur stdDeviation="2"/>
            <feComposite in2="hardAlpha" operator="out"/>
            <feColorMatrix type="matrix" values="0 0 0 0 0 0 0 0 0 0 0 0 0 0 0 0 0 0 0.25 0"/>
            <feBlend mode="normal" in2="BackgroundImageFix" result="effect1_dropShadow_2_15"/>
            <feBlend mode="normal" in="SourceGraphic" in2="effect1_dropShadow_2_15" result="shape"/>
        </filter>
        <linearGradient id="paint0_linear_2_15" x1="76" y1="14" x2="96" y2="34" gradientUnits="userSpaceOnUse">
            <stop stop-color="#3D0251"/>
            <stop offset="1" stop-color="white"/>
        </linearGradient>
        <linearGradient id="paint1_linear_2_15" x1="76" y1="14" x2="96" y2="34" gradientUnits="userSpaceOnUse">
            <stop stop-color="#3D0251"/>
            <stop offset="1" stop-color="white"/>
        </linearGradient>
        <linearGradient id="paint2_linear_2_15" x1="77" y1="15" x2="95" y2="33" gradientUnits="userSpaceOnUse">
            <stop stop-color="white"/>
            <stop offset="1" stop-color="#3D0251"/>
        </linearGradient>
    </defs>
</svg>
